<!DOCTYPE svg PUBLIC "-//W3C//DTD SVG 1.1//EN" "http://www.w3.org/Graphics/SVG/1.1/DTD/svg11.dtd">
<!-- Uploaded to: SVG Repo, www.svgrepo.com, Transformed by: SVG Repo Mixer Tools -->
<svg fill="#ffffff" width="50px" height="50px" viewBox="0 0 512 512" version="1.1" xml:space="preserve" xmlns="http://www.w3.org/2000/svg" xmlns:xlink="http://www.w3.org/1999/xlink">
<g id="SVGRepo_bgCarrier" stroke-width="0"/>
<g id="SVGRepo_tracerCarrier" stroke-linecap="round" stroke-linejoin="round"/>
<g id="SVGRepo_iconCarrier"> <g id="travel-heart-suitcase-love-valentine"> <path d="M405.92,168c-8.576,0-14.691,0-21.92,0v-16c0-13.234-10.766-24-24-24v-24c0-17.673-14.327-32-32-32H184 c-17.673,0-32,14.327-32,32v24c-13.234,0-24,10.766-24,24v16c-7.229,0-13.344,0-21.92,0C87.28,168,72,183.28,72,202.08v203.84 c0,18.8,15.28,34.08,34.08,34.08c78.796,0-83.345,0,299.84,0c18.8,0,34.08-15.28,34.08-34.08V202.08 C440,183.28,424.72,168,405.92,168z M384,204h-24v-20h24V204z M360,276h24v140h-24V276z M352,260c-4.4,0-8-3.6-8-8v-24 c0-4.4,3.6-8,8-8c8.637,0,31.262,0,40,0c4.4,0,8,3.6,8,8v24c0,4.4-3.6,8-8,8C383.363,260,360.738,260,352,260z M184,112 c0-4.418,3.582-8,8-8h128c4.418,0,8,3.582,8,8v16c-13.234,0-24,10.766-24,24v16h-96v-16c0-13.234-10.766-24-24-24V112z M128,276h24 v148h-24V276z M120,260c-4.4,0-8-3.6-8-8v-24c0-4.4,3.6-8,8-8c8.637,0,31.262,0,40,0c4.4,0,8,3.6,8,8v24c0,4.4-3.6,8-8,8 C151.258,260,128.631,260,120,260z M152,204h-24v-20h24V204z M144,168v-16c0-4.484,3.516-8,8-8h32c4.41,0,8,3.586,8,8v16 C125.647,168,172.733,168,144,168z M301.76,313.6l-32.48,32.88c-7.36,7.44-19.2,7.44-26.56,0l-32.48-32.88 c-11.84-11.92-13.92-31.2-3.6-44.56c12.4-16.16,35.52-17.28,49.36-3.28c13.84-14,36.96-12.88,49.36,3.28 C315.68,282.4,313.6,301.68,301.76,313.6z M320,152c0-4.484,3.516-8,8-8h32c4.41,0,8,3.586,8,8v16c-28.711,0,18.314,0-48,0V152z"/> </g> <g id="Layer_1"/> </g>
</svg>